<svg clip-rule="evenodd" fill-rule="evenodd" stroke-linejoin="round" stroke-miterlimit="2" viewBox="0 0 560 400" xmlns="http://www.w3.org/2000/svg"><path d="m72.142 10.347c.351.002.639.273.656.616.006.067-.003.134-.026.196l-.027.061-7.517 16.842c-.096.32-.379.548-.712.586l-.101.005h-.053c-.341.002-.648-.197-.781-.498l-.035-.093-7.491-16.788c-.045-.088-.063-.187-.052-.285.018-.358.319-.64.685-.642.296.014.555.19.674.45l.035.089 7.018 16.134 7.044-16.159c.104-.289.371-.491.683-.514zm16.922 0c1.251.002 2.632.035 3.925.453 1.63.507 2.878 1.593 3.34 2.902.444 1.251.191 2.761-.67 4.035-.644.943-1.597 1.777-3.001 2.613-1.088.647-2.237 1.194-3.429 1.634 1.48 1.114 3.057 2.336 4.421 3.396 1.234.955 2.286 1.782 2.882 2.206l-.012-.006c.19.116.298.327.277.545-.02.218-.165.407-.374.487-.209.081-.447.04-.615-.106-.596-.432-1.669-1.265-2.911-2.226-1.487-1.155-3.35-2.598-5.027-3.849-1.594.485-3.241.784-4.908.891v4.711c0 .321-.267.581-.596.581l-.081-.006c-.29-.038-.515-.281-.515-.575v-4.67c-.28-.003-.56-.024-.834-.024-1.627-.081-2.98-1.007-3.278-2.252-.244-1.022.283-2 1.413-2.613.846-.401 1.792-.558 2.726-.452.009-2.375.03-4.746.03-7.095 0-.32.267-.58.596-.58zm53.483-.796c.174-.002.34.066.463.187.102.101.166.232.184.372l.005.085v17.024c.006.148-.048.292-.151.4-.083.086-.191.143-.307.164l-.089.008h-.105c-.246-.031-.469-.158-.618-.351l-.06-.087-12.561-15.739v15.553c.016.241-.105.471-.314.596s-.471.125-.68 0c-.182-.11-.298-.299-.313-.506v-17.019c.006-.339.262-.618.594-.664l.084-.006h.209c.244.011.469.126.62.311l.06.084 12.327 15.453v-15.221c-.001-.171.067-.336.19-.457.122-.121.289-.189.462-.187zm11.053 0c.405.005.737.259.792.588l.008.083v16.964c0 .24-.153.461-.4.581-.248.12-.553.12-.8 0-.217-.105-.361-.288-.393-.492l-.007-.089v-16.964c.007-.368.361-.665.8-.671zm-135.174 0c.382-.007.728.212.885.55l.038.095 7.747 16.63c.068.127.103.268.104.411-.003.167-.073.327-.195.443s-.285.18-.454.177c-.274-.021-.514-.183-.635-.421l-.04-.093-2.135-4.634h-10.735l-2.134 4.659c-.085.286-.348.484-.649.489-.331.009-.608-.245-.623-.571.002-.108.023-.213.06-.314l.043-.098 7.762-16.678c.12-.354.438-.602.807-.64l.102-.005zm24.813 0c.376-.001.715.217.869.551l.038.094 7.75 16.63c.068.127.103.268.104.411-.003.168-.074.328-.196.444s-.286.179-.455.176c-.274-.021-.513-.183-.634-.421l-.04-.093-2.152-4.641h-10.722l-2.128 4.658c-.085.287-.35.485-.651.488-.33.01-.607-.244-.622-.571.002-.107.023-.213.06-.313l.043-.098 7.776-16.67c.12-.354.437-.602.806-.64l.102-.005zm68.001 0c.377-.001.717.217.871.551l.038.094 7.747 16.63c.068.127.103.268.104.411-.003.167-.074.327-.195.443-.122.116-.285.18-.454.177-.274-.021-.514-.183-.635-.421l-.04-.093-2.135-4.635h-10.735l-2.134 4.66c-.085.286-.348.484-.649.489-.331.009-.608-.245-.623-.571.002-.108.023-.213.06-.314l.043-.098 7.774-16.678c.12-.355.439-.603.809-.64l.102-.005zm-29.982 9.603c-.554-.021-1.105.093-1.603.331-.659.357-.954.833-.835 1.343.149.628.954 1.295 2.196 1.359.257.02.516.02.778.02v-2.139c0-.299.003-.595.009-.891-.182-.023-.366-.023-.545-.023zm1.728 3.015-.009.001h.009zm0-2.774v2.774l.529-.043c.896-.085 1.785-.229 2.66-.432l.524-.128c-.883-.675-1.814-1.288-2.786-1.835-.298-.139-.608-.251-.927-.336zm-64.601-8.319-4.805 10.419 9.59.006zm92.803 0-4.808 10.419 9.59.006zm-67.99 0-4.812 10.413 9.59.006zm45.566.423h-5.742c-.009 2.221-.024 4.456-.024 6.694.499.112.984.277 1.445.493l-.009.006c.721.343 2.089 1.289 3.686 2.45 1.373-.455 2.691-1.054 3.93-1.788 1.249-.743 2.083-1.466 2.628-2.273.662-.99.865-2.107.54-3.022-.34-.966-1.305-1.782-2.581-2.18-1.224-.38-2.571-.38-3.873-.38z" fill="#002b83" fill-rule="nonzero" transform="matrix(3.45303 0 0 3.45303 -3.14774 134.041)"/></svg>