<svg clip-rule="evenodd" fill-rule="evenodd" stroke-linejoin="round" stroke-miterlimit="2" viewBox="0 0 560 400" xmlns="http://www.w3.org/2000/svg"><g fill="#c209c1" fill-rule="nonzero" transform="matrix(1.875 0 0 1.875 83.1249 155)"><path d="m108.54 30.722c-2.062-1.452-4.993-2.433-9.225-3.094-5.251-.893-8.098-1.839-8.098-4.291 0-1.914 1.801-3.962 6.853-3.962 2.498 0 4.412.785 5.687 2.334.607.732 1.066 1.638 1.367 2.686.12.416.503.708.936.708l4.556-.003c.286 0 .56-.124.742-.342.185-.22.264-.505.214-.788-.795-4.458-3.504-6.909-4.314-7.554-2.366-1.884-5.458-2.836-9.188-2.836-3.89 0-7.245.94-9.699 2.721-2.495 1.812-3.815 4.312-3.815 7.235 0 6.944 6.448 8.951 13.417 10.087 6.598.968 7.487 2.742 7.487 4.352 0 2.604-2.831 4.223-7.39 4.223-.795 0-1.549-.065-2.243-.192-.019-.009-.038-.019-.06-.022-3.007-.596-5.018-2.448-6.149-5.653-.135-.385-.503-.645-.917-.645h-4.811c-.289 0-.559.127-.744.344-.186.221-.261.509-.211.788.333 1.8 1.203 3.351 1.241 3.416l.003.006c2.074 4.422 6.058 7.062 11.528 7.639.01 0 .016.003.026 0 .766.081 1.552.121 2.337.121 3.953 0 7.529-1.002 10.067-2.82 2.567-1.84 3.985-4.443 3.985-7.335 0-3.096-1.172-5.426-3.582-7.123z"/><path d="m44.193 13.794h-5.8c-.339 0-.613.27-.613.605v32.792c0 .335.274.604.613.604h5.8c.34 0 .613-.269.613-.604v-32.792c-.003-.335-.276-.605-.613-.605z"/><path d="m209.704 38.345c-.261-.323-.647-.506-1.065-.506h-4.544c-.562 0-1.062.342-1.272.872-.735 1.834-2.432 2.802-4.924 2.802h-.025c-3.494-.003-5.338-1.853-5.338-5.346v-15.916c0-.134.11-.239.242-.239h13.624c.751 0 1.36-.602 1.36-1.344v-3.531c0-.741-.609-1.343-1.36-1.343h-13.624c-.135 0-.242-.109-.242-.239v-7.21c0-.742-.61-1.344-1.361-1.344h-4.317c-.751 0-1.36.602-1.36 1.344v30.092c0 7.024 4.835 11.56 12.316 11.56l.07-.003h.031c.022 0 .041.003.063.003 6.29 0 10.774-3.189 11.987-8.529.094-.394-.003-.807-.261-1.123z"/><path d="m178.114 17.936c-2.765-2.739-6.447-4.288-10.375-4.353-3.99-.065-7.77 1.409-10.645 4.164-2.938 2.814-4.556 6.577-4.556 10.595v18.855c0 .335.273.605.612.605h5.801c.339 0 .612-.27.612-.605v-19.05c0-2.088.846-4.046 2.382-5.51 1.537-1.465 3.563-2.247 5.706-2.197 4.116.09 7.726 3.543 7.726 7.387l-.003.345c-.003.164.063.319.182.437.12.118.277.18.447.183 1.313.003 4.402.003 5.772 0 .345 0 .628-.276.628-.614v-.037c0-3.838-1.524-7.462-4.289-10.205z"/><path d="m79.45 35.692h-5.14c-.217 0-.418.094-.556.252-.06.065-.107.136-.142.22-1.398 3.543-4.377 5.579-8.179 5.579-2.831 0-5.388-1.096-7.201-3.081-1.81-1.983-2.806-4.766-2.806-7.841 0-3.102.996-5.907 2.806-7.899s4.367-3.087 7.201-3.087c3.856 0 6.86 2.054 8.245 5.634.113.292.387.478.695.478h5.14c.236 0 .452-.105.6-.295.116-.152.164-.344.151-.533-.035-.484-.123-.99-.261-1.496-.022-.093-.072-.248-.072-.248-.71-2.339-2.24-4.148-2.306-4.226-.004-.003-.007-.006-.01-.009-2.809-3.59-7.132-5.563-12.182-5.563-4.832 0-9.196 1.828-12.285 5.147-2.954 3.174-4.581 7.471-4.581 12.094 0 4.589 1.609 8.855 4.534 12.014 3.126 3.378 7.39 5.162 12.335 5.162 2.106 0 4.029-.307 5.744-.915 3.978-1.561 7.123-4.176 8.76-9.069.139-.506.23-1.011.261-1.495.013-.19-.031-.382-.151-.534-.147-.183-.364-.289-.6-.289z"/><path d="m41.33 0c-2.868 0-5.206 2.305-5.206 5.141s2.334 5.141 5.206 5.141c2.828 0 5.131-2.305 5.131-5.141s-2.303-5.141-5.131-5.141z"/><path d="m17.046 0h-.026c-4.442 0-8.646 1.719-11.839 4.843-.301.295-.861.912-.861.912-.191.218-.377.438-.556.664-.022.028-.072.093-.072.093-2.244 2.842-3.541 6.311-3.692 9.988v30.688c0 .124.038.241.104.338.11.161.298.266.509.266h5.794c.339 0 .612-.269.612-.604v-15.619c0-.109.076-.158.107-.174.069-.034.148-.028.211.016 2.853 1.998 6.202 3.037 9.68 3.037 2.655 0 5.122-.608 7.4-1.712 5.722-2.774 9.674-8.675 9.674-15.52 0-9.518-7.632-17.216-17.045-17.216zm-.026 27.868c-5.712 0-10.359-4.772-10.359-10.636s4.647-10.636 10.359-10.636c5.713 0 10.36 4.772 10.36 10.636s-4.647 10.636-10.36 10.636z"/><path d="m148.566 30.586c-.11-9.398-7.701-17.009-17.024-17.009-9.388 0-17.027 7.722-17.027 17.213 0 7.617 4.924 14.092 11.72 16.351.028.009.06.019.088.031.079.025.157.053.239.078 1.499.484 3.158.747 4.905.747 4.242 0 8.276-1.576 10.406-3.965.098-.108.283-.04.283.106v3.043c0 .339.28.615.622.615h5.169c.342 0 .622-.276.622-.615v-16.595zm-17.024 10.803c-5.778 0-10.479-4.756-10.479-10.599 0-5.842 4.701-10.598 10.479-10.598s10.479 4.756 10.479 10.598c0 5.843-4.701 10.599-10.479 10.599z"/></g></svg>