<svg clip-rule="evenodd" fill-rule="evenodd" stroke-linejoin="round" stroke-miterlimit="2" viewBox="0 0 560 400" xmlns="http://www.w3.org/2000/svg"><g fill-rule="nonzero" transform="matrix(.520008 0 0 .520008 100 136.737)"><path d="m241.102 144.914c-10.916 57.111-61.225 98.402-119.444 98.402-67.078 0-121.658-54.58-121.658-121.658 0-67.236 54.58-121.658 121.658-121.658 58.377 0 108.528 41.291 119.444 98.402v-91.599h69.134v28.16c19.301-24.205 40.816-34.963 69.451-34.963 50.309 0 81.475 36.387 81.475 95.238v4.272c9.492-59.801 56.32-99.51 117.703-99.51 67.394 0 113.431 50.783 113.431 124.822v15.346h-163.898c4.904 33.539 24.521 52.682 53.947 52.682 21.516 0 37.02-9.967 41.766-27.053h65.021c-9.175 46.512-52.207 77.519-107.736 77.519-62.332 0-110.584-39.867-120.234-99.351v92.549h-70.243v-133.998c0-28.793-14.238-44.772-39.709-44.772-23.888 0-39.708 17.719-39.708 44.772v133.998h-70.4zm382.534-49.043c-4.429-29.9-21.515-47.303-46.195-47.303-24.838 0-42.24 17.086-47.936 47.303z"/><path d="m9.439 125.616h8.741c.543 2.942 2.228 4.228 5.656 4.228 2.856 0 4.742-1.457 4.742-3.685 0-1.628-1.257-2.685-3.771-3.113l-3.399-.572c-7.798-1.314-11.197-4.199-11.197-9.512 0-5.627 5.484-9.597 13.254-9.597 7.826 0 12.511 3.17 13.568 9.226h-8.655c-.4-2.371-2.143-3.656-4.971-3.656-2.656 0-4.627 1.542-4.627 3.627 0 1.543 1.228 2.4 4.085 2.914l3.684.657c7.542 1.342 10.855 4.342 10.855 9.826 0 5.913-5.399 9.883-13.454 9.883-8.626 0-13.911-3.713-14.511-10.226zm29.422-5.913c0-9.454 6.855-16.338 16.31-16.338 9.398 0 16.025 6.627 16.025 16.081 0 9.57-6.77 16.396-16.253 16.396-9.484 0-16.082-6.627-16.082-16.139zm23.08-.199c0-5.685-2.685-9.284-6.941-9.284-4.199 0-6.884 3.656-6.884 9.341 0 5.827 2.628 9.426 6.884 9.426 4.284 0 6.941-3.656 6.941-9.483zm8.769-15.197h5.027v-2.97c0-6.856 3.143-9.884 10.198-9.884 1.171 0 2.599.115 3.399.257v6.484c-.514-.028-.514-.028-1.142-.028-2.571 0-3.428.743-3.428 3.028v3.113h8.912v-9.569h8.998v9.569h14.053l3.257 14.568c.457 2.085.914 4.313 1.285 6.399.457-2.171 1-4.342 1.543-6.37l3.799-14.368h7.369l3.857 14.368c.457 1.771.999 4.056 1.456 5.998.543-2.942.829-4.37 1.2-5.998l3.256-14.597h8.884l-8.684 30.593h-8.655l-5.17-19.595-5.056 19.595h-8.912l-6.741-24.194h-6.741v13.939c0 2.628.942 3.514 3.685 3.514.799 0 1.228-.029 2.028-.172v6.627c-1.514.286-3.228.486-4.599.486-7.256 0-10.112-2.685-10.112-9.512v-14.882h-8.912v24.194h-9.027v-24.194h-5.027zm80.238 22.709c0-5.542 3.599-8.341 12.825-9.912 4.97-.828 6.77-1.971 6.77-4.313s-1.743-3.771-4.628-3.771c-3.056 0-4.798 1.4-4.998 4.057h-8.313c.657-6.285 5.371-9.712 13.397-9.712 8.855 0 13.226 4.256 13.226 12.911v12.14c0 3.77.199 4.856 1.199 6.484h-8.683c-.429-1.029-.714-2.2-.829-3.771-2.371 3.114-5.427 4.542-9.655 4.542-6.398 0-10.311-3.285-10.311-8.655zm14.539-5.284c-4.285.857-5.884 2.056-5.884 4.427 0 2.399 1.542 3.771 4.284 3.771 4.142 0 6.684-2.628 6.684-6.827v-2.857c-1.313.629-2.399.943-5.084 1.486zm18.224-17.425h8.941v4.685c1.942-3.514 4.484-5.199 7.912-5.199.4 0 1.228.086 1.914.229v7.483c-.571-.142-1.171-.199-2.428-.199-4.399 0-7.227 2.827-7.227 7.226v16.368h-9.112zm18.481 15.396c0-9.74 6.399-16.338 15.854-16.338 8.997 0 15.053 6.741 15.053 16.824v1.571h-21.852c.6 5.085 3.228 7.97 7.256 7.97 3.027 0 4.998-1.429 5.655-4.028h8.513c-1.229 6.084-6.942 10.14-14.283 10.14-9.626 0-16.196-6.541-16.196-16.139zm21.938-3.284c-.571-4.656-2.742-7.142-6.256-7.142-3.513 0-5.713 2.457-6.455 7.142z" fill="#fff"/></g></svg>