<svg clip-rule="evenodd" fill-rule="evenodd" stroke-linejoin="round" stroke-miterlimit="2" viewBox="0 0 560 400" xmlns="http://www.w3.org/2000/svg"><g fill="#1b191b" fill-rule="nonzero" transform="matrix(2.60009 0 0 2.60009 82.4051 155.066)"><path d="m37.187 12.689-10.801-10.801c-.604-.607-1.321-1.088-2.111-1.416s-1.638-.497-2.493-.497c-.856 0-1.703.169-2.493.497s-1.508.809-2.111 1.416l-4.807 4.83c2.513.4 4.8 1.684 6.452 3.62 1.651 1.936 2.559 4.397 2.559 6.941 0 2.545-.908 5.006-2.559 6.942-1.652 1.936-3.939 3.219-6.452 3.62l4.83 4.835c.603.606 1.321 1.087 2.111 1.416.79.328 1.637.497 2.493.497.855 0 1.703-.169 2.493-.497.79-.329 1.507-.81 2.111-1.416l10.778-10.806c1.216-1.218 1.9-2.869 1.9-4.591 0-1.721-.684-3.372-1.9-4.59z"/><path d="m12.224 6.865.147-.147c-1.528-.244-3.09-.154-4.579.265-1.49.419-2.87 1.156-4.047 2.16s-2.122 2.251-2.77 3.656c-.649 1.405-.984 2.933-.984 4.48s.335 3.076.984 4.481c.648 1.405 1.593 2.652 2.77 3.656s2.557 1.741 4.047 2.16c1.489.418 3.051.509 4.579.265l-.147-.147c-2.761-2.763-4.312-6.509-4.312-10.415 0-3.905 1.551-7.651 4.312-10.414z"/><path d="m70.756 11.713h3.504v13.955h-3.504v-1.708c-.68.687-1.493 1.227-2.389 1.587-.897.36-1.857.533-2.823.508-1.849.01-3.635-.673-5.005-1.916-1.473-1.266-2.21-3.094-2.21-5.446 0-2.353.737-4.144 2.21-5.447 1.369-1.244 3.155-1.928 5.005-1.915.965-.021 1.924.154 2.819.513.896.359 1.71.896 2.393 1.577zm-4.416 10.981c1.158.067 2.296-.316 3.177-1.068.398-.372.711-.824.919-1.327s.306-1.044.288-1.588c.022-.547-.074-1.092-.282-1.598-.209-.507-.524-.962-.925-1.335-.909-.707-2.029-1.091-3.181-1.091-1.153 0-2.272.384-3.182 1.091-.409.364-.732.814-.946 1.318-.213.504-.311 1.05-.288 1.597-.023.55.076 1.098.29 1.605s.538.961.949 1.328c.882.754 2.023 1.136 3.181 1.068z"/><path d="m90.507 13.246c1.446 1.294 2.183 3.117 2.183 5.447 0 2.329-.737 4.18-2.183 5.446-1.383 1.239-3.175 1.921-5.032 1.916-.959.029-1.914-.139-2.806-.493-.892-.355-1.701-.889-2.378-1.57v6.579h-3.504v-18.877h3.504v1.676c.679-.677 1.488-1.209 2.38-1.563.891-.354 1.845-.522 2.804-.495 1.859-.002 3.653.687 5.032 1.934zm-5.828 9.448c1.173.062 2.326-.327 3.223-1.087.398-.371.712-.823.92-1.326s.306-1.044.286-1.588c.021-.544-.076-1.086-.284-1.589-.209-.504-.523-.956-.922-1.326-.896-.762-2.049-1.152-3.223-1.091-1.165-.065-2.31.327-3.191 1.091-.398.371-.712.823-.92 1.326-.209.503-.306 1.045-.286 1.589-.022.547.075 1.092.283 1.598s.523.961.923 1.335c.885.756 2.029 1.139 3.191 1.068z"/><path d="m96.93 24.287c-.858-.659-1.547-1.513-2.008-2.491-.462-.979-.682-2.054-.644-3.135-.031-1.073.19-2.137.645-3.109.455-.971 1.132-1.822 1.975-2.485 1.568-1.136 3.456-1.743 5.391-1.736 2.441 0 4.941.976 6.446 2.813 0 .023-2.564 2.569-2.564 2.565-.421-.641-.999-1.162-1.678-1.516s-1.438-.528-2.204-.506c-1.107-.011-2.186.353-3.061 1.032-.454.345-.816.797-1.053 1.316s-.342 1.089-.306 1.658c-.035.569.071 1.138.307 1.657.237.519.598.971 1.052 1.317.875.678 1.954 1.039 3.061 1.027 1.561 0 3.177-.732 3.914-2.058l2.564 2.564-.027.037c-.677.84-1.548 1.503-2.537 1.934-1.223.581-2.56.883-3.914.884-1.93.006-3.811-.614-5.359-1.768z"/><path d="m122.087 11.713h3.504v13.955h-3.504v-1.708c-.68.686-1.493 1.226-2.389 1.586-.897.36-1.857.534-2.823.509-1.847.009-3.631-.675-5-1.916-1.473-1.266-2.21-3.094-2.21-5.446 0-2.353.737-4.144 2.21-5.447 1.369-1.244 3.155-1.928 5.005-1.915.964-.021 1.923.154 2.819.513s1.709.896 2.393 1.577zm-4.415 10.981c1.159.064 2.299-.326 3.176-1.087.4-.37.714-.822.923-1.325s.307-1.045.288-1.589c.02-.545-.077-1.087-.286-1.59s-.525-.955-.925-1.325c-.908-.707-2.027-1.091-3.179-1.091-1.151 0-2.27.384-3.179 1.091-.408.365-.73.816-.943 1.319-.213.504-.313 1.049-.291 1.596-.024.549.074 1.098.288 1.605.213.507.536.96.946 1.328.883.754 2.023 1.136 3.182 1.068z"/><path d="m131.622 13.863c1.561-1.681 3.564-2.187 5.949-2.187v3.297c-2.592 0-5.949 1.068-5.949 4.397v6.298h-3.504v-13.955h3.504z"/><path d="m55.65 21.626c-.1.331-.312.618-.598.813-.287.194-.632.284-.977.255-1.027 0-1.676-.677-1.676-1.883v-5.742h4.475v-3.356h-4.475v-4.71l-3.504 2.09v2.62h-3.466v3.356h3.443v6.211c-.025.648.094 1.294.349 1.89.254.597.639 1.129 1.125 1.559 1.02.902 2.349 1.377 3.711 1.326.765.019 1.524-.132 2.224-.442.7-.309 1.322-.77 1.823-1.349l.069-.078s-2.519-2.56-2.523-2.56z"/><path d="m149.463 21.626c-.098.331-.308.619-.595.814-.286.194-.63.284-.975.254-1.031 0-1.68-.677-1.68-1.883v-5.742h4.475v-3.356h-4.475v-4.71h-.023l-3.504 2.09v2.62h-3.444v3.356h3.444v6.211c-.026.648.093 1.294.348 1.89.255.597.639 1.129 1.125 1.559 1.021.902 2.35 1.377 3.711 1.326h.023c.764.017 1.521-.134 2.219-.444.699-.309 1.319-.769 1.819-1.347l.069-.078s-2.528-2.56-2.537-2.56z"/></g></svg>