<svg clip-rule="evenodd" fill-rule="evenodd" stroke-linejoin="round" stroke-miterlimit="2" viewBox="0 0 560 400" xmlns="http://www.w3.org/2000/svg"><path d="m105.567 20.549c-.435 0-.809.363-.996 1.211l-.008.04c-.371 1.744-.752 3.534-2.421 3.473-1.059 0-1.37-1.514-1.308-1.877l.187-9.51c.062-.908-.623-1.756-1.619-1.817h-.312c-.56 0-1.308.121-1.308.424 0 .099.046.171.106.266.125.198.31.491.268 1.309l-.125 5.694c0 2.846-1.868 5.451-3.488 5.39 0 0-3.612 1.091-1.494-10.902.035-.172.09-.356.146-.543.24-.803.494-1.649-.769-1.698-1.776-.05-1.94.504-2.108 1.071-.038.129-.077.259-.134.382-.374 2.787-.623 5.573-.686 8.42v.181c-.498 1.454-1.245 2.908-2.491 2.847-.872 0-1.432-.606-1.37-1.878l.187-12.416c2.18.06 4.36.06 7.723.06 1.059 0 1.557-3.876.311-2.726-2.802.061-5.481.061-7.972.061l.062-3.816c0-.969-.872-1.817-2.242-1.817-.56 0-1.308.121-1.37.424-.022.108.027.185.096.294.125.198.318.501.278 1.281l-.063 3.573c-2.242-.06-3.737-.181-3.737-.181-1.183 0-.498 2.725.81 2.725.934.061 1.931.122 2.865.122l-.187 10.478c-.436 1.696-1.245 3.816-2.74 3.755-1.059 0-1.059-1.514-1.059-1.877l.124-7.572c.063-1.877-.622-4.118-3.363-4.118-2.055-.061-3.55 1.696-4.733 3.937v-1.817c0-.969-.872-1.817-2.243-1.817-.56 0-1.058.242-1.121.666.063.424.125.848.125 1.272l-.125 6.239-.186.545c-.374 1.756-1.184 4.361-2.866 4.3-.996 0-1.432-.969-1.37-1.877l.125-5.876c0-.969-.872-1.817-2.242-1.817-.561 0-1.121.242-1.121.666.124.424.124.848.124 1.272l-.062 5.452c-.498 1.15-1.246 2.059-2.367 2.059-1.433 0-2.367-1.272-2.305-3.392.125-5.815 3.862-7.571 6.976-7.571.227 0 .436.033.638.064.186.029.366.057.546.057.373 0 .56-.242.56-.909 0-.969-.809-1.756-1.744-1.756h-.124c-5.108-.061-9.966 3.15-10.09 9.933 0 .303 0 .606.062.909-.498 1.333-1.183 2.483-2.367 2.483-.685 0-1.245-.484-1.37-1.09l.312-18.898c0-1.756-.81-2.604-2.18-2.604-.561 0-1.308.121-1.371.424-.022.108.027.185.097.294.125.198.317.501.277 1.281l-.124 7.147c-4.547.545-8.471 3.271-8.596 9.449v.848c-.809 1.635-2.179 2.968-4.484 2.907-1.495.061-2.927-.787-3.612-2.12 3.799-2.18 6.29-4.422 6.353-7.147.062-2.423-1.371-4.119-3.675-4.179-3.177-.061-6.602 3.089-6.664 8.237 0 .848.124 1.696.373 2.544-2.117 1.635-4.546 2.968-7.1 3.937.691-3.073 1.373-6.013 2.052-8.944 1.035-4.464 2.065-8.907 3.117-13.77.211-.664.432-1.113.589-1.432.216-.438.313-.634.097-.809-.872-.727-3.426-.484-3.8 1.393-.872 4.482-2.18 10.176-3.238 14.537-1.682-.182-3.426.182-4.859 1.09-1.173-1.793-2.564-3.991-3.976-6.223-1.211-1.915-2.439-3.854-3.56-5.588-.934-1.454-3.488-.969-4.048 0-.132.225-.037.313.202.536.212.198.538.501.919 1.1 1.695 2.473 3.223 4.868 4.726 7.225 2.693 4.223 5.307 8.322 8.665 12.52.436.546 1.183.788 1.868.546v.06l.872-.424-.809.424c2.366-.363 5.356-1.635 9.217-3.998 1.184 2.181 3.55 3.453 6.042 3.392 2.18.121 4.36-.666 5.855-2.241.872 1.515 2.553 2.423 4.297 2.362 1.37 0 2.741-.545 3.737-1.514.685 1.03 1.869 1.636 3.114 1.636 1.62 0 3.114-.788 4.049-2.06.809 1.333 2.304 2.181 3.923 2.181 1.371 0 2.679-.545 3.613-1.575.685 1.09 1.868 1.696 3.176 1.696 1.433 0 2.803-.606 3.737-1.696 0 1.454 1.121 1.757 1.993 1.757 1.184 0 1.184-.97 1.184-1.696l.124-5.936c.374-3.21 2.99-5.815 4.173-5.815.81 0 .872 1.09.81 2.302l-.125 7.389c-.062 2.06 1.246 3.816 3.426 3.877 1.557 0 2.99-.727 3.924-1.878.56 1.272 1.868 2.12 3.301 1.999 1.619 0 3.114-.727 4.048-1.999.623 1.332 2.056 2.181 3.55 2.181 1.807 0 3.177-1.151 4.236-2.847.187 1.696 1.619 2.907 3.363 2.907 3.612.061 4.858-2.786 5.668-5.451.062-.121.062-.182.062-.303 0-.787-.747-1.696-1.433-1.696zm-74.801-7.208c.56 0 .872.545.872 1.454-.063 2.422-1.744 3.634-3.613 4.785 0-.121-.015-.243-.031-.364s-.031-.242-.031-.363c-.062-1.757.747-5.512 2.803-5.512zm11.895 11.205c1.059-.061 1.994-.666 2.43-1.575l.186-9.994c-2.74.484-5.294 2.302-5.356 7.389-.062 2.908 1.308 4.18 2.74 4.18z" fill="#ff693d" transform="matrix(3.36449 0 0 3.36449 100 152.897)"/></svg>