<svg clip-rule="evenodd" fill-rule="evenodd" stroke-linejoin="round" stroke-miterlimit="2" viewBox="0 0 560 400" xmlns="http://www.w3.org/2000/svg"><g transform="matrix(.600641 0 0 .598712 99.9941 140.5)"><path d="m118 45.75v48.58c0 11.42-3 20.443-9 27.07s-14.053 9.94-24.16 9.94c-5.029.044-9.997-1.1-14.5-3.34-4.491-2.25-8.38-5.542-11.34-9.6-3.08 4.051-7.031 7.359-11.56 9.68-4.419 2.194-9.296 3.312-14.23 3.26-10.113 0-18.18-3.333-24.2-10s-9.02-15.667-9-27v-48.59h14.99v51.25c0 5.94 1.667 10.727 5 14.36s7.743 5.447 13.23 5.44c5.009.175 9.857-1.829 13.28-5.49 3.433-3.653 5.15-8.423 5.15-14.31v-51.25h14.9v51.25c0 5.94 1.667 10.727 5 14.36s7.743 5.447 13.23 5.44c4.993.174 9.82-1.84 13.21-5.51 3.387-3.653 5.083-8.423 5.09-14.31v-51.23z" fill-rule="nonzero"/><path d="m191.25 129.8v-41.9c0-8.793-2.487-15.92-7.46-21.38s-11.427-8.187-19.36-8.18c-7.88 0-14.35 2.7-19.41 8.1s-7.587 12.353-7.58 20.86c0 8.667 2.6 15.78 7.8 21.34s11.827 8.347 19.88 8.36c3.637.002 7.246-.638 10.66-1.89 3.74-1.411 7.249-3.372 10.41-5.82v16.19c-3.401 1.927-7.047 3.384-10.84 4.33-3.911.953-7.924 1.427-11.95 1.41-4.04-.004-8.057-.625-11.91-1.84-3.815-1.17-7.428-2.92-10.71-5.19-5.866-3.961-10.64-9.337-13.88-15.63-3.25-6.471-4.896-13.629-4.8-20.87 0-12.593 3.967-22.99 11.9-31.19s18.017-12.297 30.25-12.29c7.789-.075 15.446 2.031 22.1 6.08 6.633 3.985 11.991 9.783 15.44 16.71 1.689 3.305 2.885 6.839 3.55 10.49.839 5.626 1.197 11.313 1.07 17v35.3z" fill-rule="nonzero"/><path d="m215.16 7.11h15.08v122.69h-15.08z"/><path d="m240.45 129.8v-122.69h15.08v69.14h6.68c3.684.157 7.335-.768 10.5-2.66 2.713-1.773 5.64-5.257 8.78-10.45l10.71-17.39h17.56l-12.33 20c-1.864 3.15-4.016 6.119-6.43 8.87-1.687 2.01-3.719 3.703-6 5 6.913 1.333 12.013 4.177 15.3 8.53s4.927 10.537 4.92 18.55v23.1h-15.16v-21.25c0-6-1.33-10.5-4-13.32s-6.86-4.23-12.62-4.23h-17.91v38.8z" fill-rule="nonzero"/><path d="m542.05 0h-170.22c-31.445 0-57.32 25.875-57.32 57.32v55.36c0 31.445 25.875 57.32 57.32 57.32h44.1l40.38 28.76 40.38-28.76h45.36c31.445 0 57.32-25.875 57.32-57.32v-55.35c0-31.447-25.873-57.325-57.32-57.33" fill="#0094d4"/><g fill="#fff" fill-rule="nonzero"><path d="m353.56 128v-48.64c0-11.42 3-20.443 9-27.07s14.08-9.94 24.24-9.94c4.993-.048 9.927 1.083 14.4 3.3 4.496 2.282 8.397 5.583 11.39 9.64 3.046-4.056 6.976-7.367 11.49-9.68 4.443-2.197 9.343-3.314 14.3-3.26 10.06 0 18.1 3.333 24.12 10s9.02 15.667 9 27v48.65h-14.87v-51.46c0-5.88-1.683-10.623-5.05-14.23-7.283-7.139-19.107-7.139-26.39 0-3.373 3.6-5.06 8.343-5.06 14.23v51.46h-14.9v-51.46c0-5.88-1.717-10.623-5.15-14.23-3.455-3.605-8.29-5.568-13.28-5.39-5.48 0-9.89 1.797-13.23 5.39s-5.007 8.337-5 14.23v51.46z"/><path d="m560.32 90.76c-2.12 12-6.977 21.483-14.57 28.45s-16.843 10.45-27.75 10.45c-3.717-.002-7.418-.507-11-1.5-3.601-.988-7.048-2.473-10.24-4.41-18.435-11.318-26.085-34.516-18-54.58 2.148-5.269 5.284-10.079 9.24-14.17 7.879-8.201 18.788-12.82 30.16-12.77 8.112-.132 16.077 2.198 22.84 6.68 6.7 4.48 12.14 11.003 16.32 19.57l-55.09 30.52-6.35-11.39 40.87-22.81c-2.354-2.681-5.243-4.84-8.48-6.34-3.229-1.446-6.732-2.176-10.27-2.14-7.279-.115-14.253 2.973-19.06 8.44-5.173 5.62-7.76 12.573-7.76 20.86s2.6 15.227 7.8 20.82c4.91 5.409 11.886 8.497 19.191 8.497 6.622 0 12.998-2.537 17.809-7.087 4.827-4.707 7.827-11.173 9-19.4z"/></g></g></svg>